<svg xmlns="http://www.w3.org/2000/svg" viewBox="0 0 128 128">
  <defs>
    <linearGradient id="sky" x1="0" y1="0" x2="0" y2="1">
      <stop offset="0" stop-color="#4f9bc4"/><stop offset=".55" stop-color="#6fb4d6"/>
      <stop offset="1" stop-color="#5aa86d"/>
    </linearGradient>
  </defs>
  <rect width="128" height="128" rx="28" fill="url(#sky)"/>
  <!-- clouds -->
  <g fill="#fff" opacity=".28">
    <ellipse cx="30" cy="30" rx="16" ry="6"/><ellipse cx="98" cy="22" rx="20" ry="7"/>
    <ellipse cx="104" cy="58" rx="12" ry="5"/>
  </g>
  <!-- hills -->
  <path d="M0 104q26-16 50-4t78-6v34H0z" fill="#3f8a52" opacity=".55"/>

  <!-- Anime steam locomotive, cream silhouette -->
  <g transform="translate(12,16) scale(0.84)">
    <g fill="#ffffff" opacity=".92">
      <circle cx="38" cy="35" r="7"/><circle cx="45" cy="27" r="9"/>
      <circle cx="57" cy="20" r="11"/><circle cx="71" cy="15" r="12"/>
      <circle cx="86" cy="13" r="11"/><circle cx="96" cy="20" r="7"/>
      <polygon points="92,11 110,3 98,19"/><polygon points="85,5 101,2 90,12"/>
    </g>
    <g fill="#fdf9f0">
      <circle cx="30" cy="97" r="8"/><circle cx="55" cy="94" r="15"/><circle cx="90" cy="94" r="15"/>
      <polygon points="20,86 8,99 22,99 24,86"/>
      <rect x="14" y="84" width="102" height="8" rx="3"/>
      <rect x="20" y="54" width="72" height="32" rx="16"/>
      <polygon points="29,54 46,54 49,40 26,40"/>
      <rect x="25" y="37" width="25" height="4.5" rx="2.2"/>
      <path d="M55 54a9 9 0 0 1 18 0z"/>
      <rect x="86" y="46" width="30" height="40" rx="5"/>
      <rect x="82" y="42" width="38" height="7" rx="3"/>
    </g>
    <g fill="#2f6f93"><circle cx="55" cy="94" r="5"/><circle cx="90" cy="94" r="5"/><circle cx="30" cy="97" r="3"/></g>
    <rect x="51" y="91.5" width="43" height="5" rx="2.5" fill="#c2703d"/>
    <circle cx="24" cy="65" r="5" fill="#f0a92e"/>
    <rect x="92" y="54" width="18" height="16" rx="3" fill="#2f6f93"/>
  </g>
</svg>
